<?xml version="1.0" encoding="UTF-8"?>
<svg version="1.1" xmlns="http://www.w3.org/2000/svg" width="400" height="400">
<path d="M0 0 C132 0 264 0 400 0 C400 132 400 264 400 400 C268 400 136 400 0 400 C0 268 0 136 0 0 Z " fill="#006BFF" transform="translate(0,0)"/>
<path d="M0 0 C150.59244574 0 150.59244574 0 176.67578125 24.52734375 C189.68882202 38.37146948 191.61725263 56.07659968 191.33984375 74.265625 C190.73419108 89.37427163 184.54932452 104.78073517 173.3671875 115.1796875 C166.39683271 120.5397293 158.91403652 124.82521497 150 125 C150 125.66 150 126.32 150 127 C151.794375 127.309375 151.794375 127.309375 153.625 127.625 C168.56558815 131.01310188 180.59182113 138.34408145 189.24609375 151.01953125 C198.96078014 167.52800724 200.56588173 189.40638587 196.8125 208.04296875 C191.47963239 227.45153021 180.04742524 243.0139606 162.45703125 253.19140625 C153.01643272 258.13038605 143.5680411 261.30352321 133.25 263.8125 C132.39921875 264.01963623 131.5484375 264.22677246 130.671875 264.44018555 C88.20435553 274.16003737 43.5656485 267 0 267 C0 178.89 0 90.78 0 0 Z " fill="#FEFEFF" transform="translate(108,69)"/>
<path d="M0 0 C7.693125 -0.04125 15.38625 -0.0825 23.3125 -0.125 C25.71829346 -0.14320801 28.12408691 -0.16141602 30.6027832 -0.18017578 C32.54378029 -0.18602573 34.48477987 -0.19112009 36.42578125 -0.1953125 C37.40591187 -0.20554443 38.38604248 -0.21577637 39.39587402 -0.22631836 C52.50042652 -0.22957294 65.03762408 2.15903494 75 11.3125 C81.55343842 18.71516149 82.80423724 26.25577572 82.37890625 35.921875 C81.71615251 44.73920056 79.36680101 52.96041387 73.0390625 59.35546875 C63.01517377 67.43986943 50.4949755 69.48054701 37.98828125 69.29296875 C37.01644897 69.28994751 36.0446167 69.28692627 35.04333496 69.28381348 C31.46627954 69.26829935 27.88937735 69.22641778 24.3125 69.1875 C12.2778125 69.0946875 12.2778125 69.0946875 0 69 C0 46.23 0 23.46 0 0 Z " fill="#006BFF" transform="translate(165,220)"/>
<path d="M0 0 C6.661875 -0.04125 13.32375 -0.0825 20.1875 -0.125 C22.26184326 -0.14320801 24.33618652 -0.16141602 26.47338867 -0.18017578 C57.96091857 -0.34425366 57.96091857 -0.34425366 70 9.4375 C77.01878798 18.4303221 77.9595417 25.9364017 77 37 C75.64858036 43.67962829 72.67663643 48.3397643 67.31640625 52.53515625 C53.19721173 61.46382058 35.15453259 60.27384848 19.125 60.125 C12.81375 60.08375 6.5025 60.0425 0 60 C0 40.2 0 20.4 0 0 Z " fill="#046DFF" transform="translate(164,115)"/>
</svg>
